<svg width="33" height="43" fill="none" xmlns="http://www.w3.org/2000/svg"><path d="M16.392 37.21c8.839 0 16.002-7.162 16.002-15.998 0-8.836-7.163-16.001-16.002-16.001C7.556 5.21.394 12.376.394 21.212c0 8.836 7.162 15.999 15.998 15.999z" fill="#fff"/><path d="M19.983 17.045c0-1.82 1.231-3.584 1.903-3.252.766.384-.574 2.098-1.903 3.252zm-8.376.663c0-1.463 1.444-4.242 2.325-3.948 1.042.347-.863 3.15-2.325 3.948zM10.144 28.17c-.664.03-1.108-.395-1.108-1.103 0-1.904 2.642-3.723 4.637-4.699-.354 2.658-1.252 5.7-3.53 5.802zm12.187-6.204c-1.506 0-2.658 1.109-2.658 2.438 0 1.108.666 1.994 1.55 1.994.313 0 .622-.178.622-.574 0-.58-.764-.718-.706-1.58.038-.568.574-.948 1.105-.948 1.063 0 1.56 1.03 1.56 2.093-.043 1.64-1.252 2.78-2.667 2.78-1.863 0-3.06-1.77-3.06-3.677 0-2.838 1.863-3.946 2.839-4.21.01 0 2.548.45 2.47-.669-.037-.492-.77-.681-1.299-.701-.588-.023-1.182.188-1.182.188-.308-.157-.523-.463-.655-.816 1.817-1.375 3.102-2.703 3.102-4.21 0-.798-.532-1.507-1.552-1.507-1.817 0-3.191 2.305-3.191 4.388 0 .353 0 .71.091 1.019-1.153.84-2.01 1.365-3.56 2.296 0-.194.04-.695.17-1.343.532-.576 1.261-1.44 1.261-2.106 0-.31-.176-.577-.533-.577-.885 0-1.549 1.331-1.726 2.262-.4.49-1.197 1.11-1.864 1.11-.53 0-.709-.488-.754-.666 1.685-.577 3.768-2.881 3.768-4.965 0-.442-.177-1.418-1.506-1.418-1.995 0-3.677 2.97-3.677 5.273-.711 0-.976-.753-.976-1.33 0-.577.222-1.15.222-1.329 0-.177-.09-.398-.356-.398-.664 0-1.063.886-1.063 1.906.046 1.418.976 2.307 2.216 2.394.178.843.93 1.64 1.86 1.64.577 0 1.286-.177 1.774-.619-.043.31-.087.577-.132.841-1.952 1.021-3.37 1.73-4.655 2.882-1.017.932-1.594 2.172-1.594 3.146 0 1.331.841 2.572 2.57 2.572 2.037 0 3.59-1.64 4.344-3.901.353-1.063.495-2.61.586-4.03 2.036-1.155 3.003-1.82 4.067-2.575.133.222.267.399.442.531-.93.488-3.145 1.863-3.145 5.098 0 2.304 1.55 4.876 4.61 4.876 2.526 0 4.254-2.084 4.254-4.08-.001-1.815-1.02-3.497-2.972-3.497zm7.62 3.808c-.006.014-.03.032-.08.015-.04-.013-.049-.032-.049-.057.002-.025.536-1.603.531-3.41-.004-1.954-.797-3.151-1.814-3.151-.622 0-1.065.445-1.065 1.11 0 1.197 1.462 1.287 1.462 3.9 0 1.063-.222 2.083-.575 3.19-1.641 5.54-6.871 8.111-11.966 8.111-2.35 0-4.02-.483-4.515-.706-.02-.012-.04-.05-.023-.09.01-.029.045-.051.066-.042.2.077 1.634.529 3.408.529 1.95 0 3.103-.798 3.103-1.774 0-.62-.488-1.108-1.108-1.108-1.197 0-1.288 1.507-3.857 1.507-1.108 0-2.084-.221-3.235-.577-5.498-1.684-8.114-6.868-8.112-12.009.002-2.505.704-4.5.715-4.518.01-.013.04-.028.08-.013.039.013.047.045.045.056-.063.208-.529 1.638-.529 3.411 0 1.952.797 3.103 1.817 3.103.575 0 1.062-.442 1.062-1.063 0-1.198-1.463-1.33-1.463-3.901 0-1.109.223-2.084.577-3.236C6.11 9.555 11.297 6.98 16.394 6.94c2.369-.019 4.441.69 4.52.754.014.012.028.042.014.078-.019.043-.046.047-.06.045-.024-.002-1.372-.566-3.412-.566-1.906-.002-3.103.796-3.103 1.817 0 .575.445 1.062 1.108 1.062 1.197 0 1.286-1.461 3.858-1.461 1.105 0 2.08.219 3.232.575 5.542 1.684 8.064 6.913 8.111 11.968.026 2.588-.703 4.546-.71 4.562zM16.396 5.965c-8.421 0-15.247 6.823-15.247 15.247 0 8.42 6.826 15.244 15.247 15.244 8.42 0 15.244-6.823 15.244-15.244 0-8.378-6.825-15.247-15.244-15.247zm0 31.246C7.575 37.21.394 30.076.394 21.212c0-8.823 7.18-16.001 16-16.001 8.818 0 16 7.178 16 16.001 0 8.864-7.182 15.999-16 15.999z" fill="#421983"/></svg>