<svg width="93" height="43" fill="none" xmlns="http://www.w3.org/2000/svg"><path d="M14.034 28.04c-.878-1.752-1.908-3.523-3.917-3.523-.384 0-.767.065-1.12.228l-.682-1.386c.832-.723 2.176-1.297 3.903-1.297 2.687 0 4.066 1.313 5.161 2.989.65-1.431.96-3.363.96-5.759 0-5.981-1.845-9.052-6.152-9.052-4.245 0-6.08 3.071-6.08 9.052 0 5.95 1.835 8.99 6.08 8.99.674 0 1.285-.075 1.847-.242zm1.052 2.088c-.93.253-1.92.393-2.9.393C6.535 30.52 1 25.946 1 19.292 1 12.576 6.534 8 12.187 8c5.746 0 11.228 4.543 11.228 11.292 0 3.755-1.727 6.805-4.237 8.777.81 1.233 1.645 2.051 2.808 2.051 1.269 0 1.78-.994 1.866-1.774h1.652c.097 1.038-.415 5.355-5.033 5.355-2.797 0-4.276-1.645-5.385-3.573zm11.962-5.708v-7.69c0-.876-.319-1.265-1.31-1.265h-1.056V13.42h6.899v10.903c0 1.838.98 2.65 2.474 2.65 1.226 0 2.452-.551 3.113-1.807v-8.437c0-.876-.32-1.265-1.311-1.265h-1.12V13.42h6.964v11.421c0 1.137.416 1.656 1.695 1.656h.224v2.11l-6.227 1.005v-2.174h-.129c-1.204 1.492-2.9 2.499-5.32 2.499-2.72 0-4.896-1.395-4.896-5.517zm25.632 3.473c2.453 0 3.385-2.165 3.434-6.523.047-4.263-.98-6.327-3.434-6.327-2.143 0-3.487 2.065-3.487 6.327 0 4.36 1.322 6.523 3.487 6.523zm0 2.044c-4.435 0-8.435-3.44-8.435-8.567 0-5.03 3.903-8.372 8.435-8.372 4.724 0 8.51 3.406 8.51 8.372 0 5.126-3.786 8.567-8.51 8.567zm8.65-.325v-2.044h.673c1.664 0 1.823-.487 1.823-1.947v-8.892c0-.876-.447-1.265-1.47-1.265h-.896V13.42h6.322l.32 3.342h.129c.704-2.402 2.591-3.667 4.36-3.667 1.462 0 2.602.844 2.602 2.553 0 1.19-.564 2.456-2.142 2.456-1.42 0-1.696-.974-2.87-.974-1.044 0-1.855 1.006-1.855 2.487v6.004c0 1.46.353 1.947 1.984 1.947h.928v2.044H61.33zm21.051-2.38c2.016 0 2.847-1.935 2.847-3.881v-2.598c-1.471 1.546-4.895 1.6-4.895 4.36 0 1.351.79 2.12 2.048 2.12zm2.944-.01c-.832 1.622-2.54 2.715-4.927 2.715-2.772 0-4.564-1.494-4.564-4.122 0-5.288 7.262-3.883 9.394-7.387v-.379c0-2.693-1.045-3.114-2.197-3.114-3.23 0-1.76 3.524-4.735 3.524-1.428 0-1.983-.875-1.983-1.859 0-1.99 2.346-3.602 6.751-3.602 4.168 0 6.728 1.168 6.728 5.376v6.717c0 1.038.374 1.601 1.27 1.601.383 0 .703-.108.948-.281l.534 1.318c-.438.682-1.6 1.883-3.808 1.883-1.919 0-3.124-.909-3.284-2.39h-.127z" fill="#fff"/></svg>